#!OML:ASF F:\VICON\USERDATA\INSTALL\rory3\rory3.ASF
:FULLY-SPECIFIED
:DEGREES
185
root 1.10978 18.2797 10.3825 13.314 16.4974 348.993
lowerback 1.50939 3.38997 3.78709
upperback -10.6403 5.21587 1.9562
thorax -12.1659 2.32451 -0.609726
lowerneck -11.7122 -9.99418 -12.2634
upperneck 26.7103 -14.6165 10.983
head 12.557 -6.54866 3.9733
rclavicle 3.11595e-014 2.82274e-014
rhumerus 188.765 -196.17 142.507
rradius 24.2661
rwrist -0.246044
rhand 0.730834 0.748214
rfingers 7.12502
rthumb 26.2902 -27.4501
lclavicle 3.11595e-014 2.82274e-014
lhumerus 23.0887 15.5895 56.2721
lradius 19.7861
lwrist -25.9447
lhand -12.1325 28.2907
lfingers 7.12502
lthumb 13.9293 57.8041
rfemur -77.9254 -9.17167 55.8763
rtibia 99.2817
rfoot 47.057 -20.4159
rtoes 8.62494
lfemur -23.57 0.932619 -23.5484
ltibia 30.9513
lfoot -12.2503 35.6787
ltoes 19.9662
186
root 1.17853 18.3233 10.4107 13.9274 11.5886 348.82
lowerback 1.09161 3.21944 4.10934
upperback -10.5986 4.95036 1.92917
thorax -11.8389 2.16189 -0.755011
lowerneck -10.5109 -11.0429 -13.3727
upperneck 26.5366 -16.1799 11.2982
head 12.6155 -7.38804 4.02457
rclavicle 2.43014e-014 2.90226e-014
rhumerus 189.408 -199.807 141.639
rradius 26.5012
rwrist -3.04609
rhand 1.57007 0.821669
rfingers 7.12502
rthumb 27.0934 -27.2542
lclavicle 2.43014e-014 2.90226e-014
lhumerus 22.5051 13.8785 54.9742
lradius 20.1999
lwrist -23.9667
lhand -12.611 29.5687
lfingers 7.12502
lthumb 13.4681 59.1133
rfemur -77.89 -9.9273 56.1367
rtibia 101.882
rfoot 46.0023 -26.2776
rtoes 20.8859
lfemur -22.742 0.29592 -23.3495
ltibia 29.8947
lfoot -13.5254 33.9098
ltoes 20.1253
187
root 1.21991 18.3383 10.3952 14.8437 5.79493 348.553
lowerback 1.39062 3.36854 3.95529
upperback -10.8823 5.15464 1.92746
thorax -12.3618 2.25052 -0.720276
lowerneck -9.77012 -12.0065 -14.212
upperneck 26.9407 -17.5853 11.1408
head 12.9232 -8.15188 3.85814
rclavicle 2.72832e-014 1.11319e-014
rhumerus 189.726 -203.218 140.834
rradius 28.8632
rwrist -5.25871
rhand 2.49175 0.823903
rfingers 7.12502
rthumb 27.9748 -27.1116
lclavicle 2.72832e-014 1.11319e-014
lhumerus 22.1902 13.5275 54.5686
lradius 20.2363
lwrist -24.2448
lhand -12.4675 28.2168
lfingers 7.12502
lthumb 13.6065 57.7522
rfemur -78.3642 -9.27419 56.267
rtibia 104.235
rfoot 50.1277 -21.3678
rtoes 8.10435
lfemur -22.6926 -0.0601359 -23.2339
ltibia 29.3283
lfoot -18.5282 32.1675
ltoes 27.8289
188
root 1.26638 18.4135 10.4124 15.6047 0.521698 348.181
lowerback 1.62631 3.38516 3.96526
upperback -11.0662 5.17647 1.89638
thorax -12.7207 2.23639 -0.780613
lowerneck -6.99671 -12.9871 -15.3222
upperneck 25.5947 -19.2187 11.6269
head 12.2663 -9.10572 4.03716
rclavicle 1.91827e-014 4.77083e-015
rhumerus 189.806 -205.539 139.636
rradius 31.0543
rwrist -6.38474
rhand 3.26438 1.14321
rfingers 7.12502
rthumb 28.7132 -26.6695
lclavicle 1.91827e-014 4.77083e-015
lhumerus 22.054 13.6384 54.3234
lradius 20.2914
lwrist -25.3907
lhand -12.0053 26.8341
lfingers 7.12502
lthumb 14.0519 56.339
rfemur -78.6004 -9.61466 56.4165
rtibia 105.974
rfoot 52.7463 -15.0849
rtoes -5.11463
lfemur -22.0079 -1.3783 -22.8739
ltibia 28.3303
lfoot -24.18 30.4415
ltoes 36.2392
189
root 1.32052 18.3659 10.43 16.4398 -4.86758 347.76
lowerback 1.8519 3.425 4.09229
upperback -11.3802 5.23321 1.75851
thorax -13.2093 2.21373 -1.02833
lowerneck -4.74559 -13.7767 -16.5705
upperneck 25.0625 -20.6885 12.2126
head 12.0882 -9.96173 4.28848
rclavicle 1.09332e-015 -2.38542e-015
rhumerus 189.383 -207.475 137.905
rradius 33.2502
rwrist -6.884
rhand 3.78214 1.71687
rfingers 7.12502
rthumb 29.2077 -26.011
lclavicle 1.09332e-015 -2.38542e-015
lhumerus 21.3483 13.1317 53.537
lradius 20.6466
lwrist -25.7942
lhand -12.7524 26.6107
lfingers 7.12502
lthumb 13.3318 56.1642
rfemur -79.5591 -9.43333 56.5496
rtibia 108.177
rfoot 54.0782 -13.1442
rtoes -11.3311
lfemur -21.8233 -0.559626 -22.9918
ltibia 27.8068
lfoot -24.0694 30.3074
ltoes 37.2185
190
root 1.37519 18.4221 10.4663 17.3152 -10.0283 347.305
lowerback 1.52335 3.44788 4.22682
upperback -10.8347 5.18796 1.67041
thorax -12.3341 2.19163 -1.15019
lowerneck -5.3004 -14.6476 -16.4366
upperneck 24.9287 -21.8751 11.9754
head 12.3015 -10.4847 3.89026
rclavicle -1.87852e-014 -1.59028e-014
rhumerus 190.268 -208.316 137.144
rradius 35.6462
rwrist -7.76564
rhand 4.23488 2.1448
rfingers 7.12502
rthumb 29.6399 -25.5071
lclavicle -1.87852e-014 -1.59028e-014
lhumerus 21.8939 12.2437 52.5766
lradius 21.147
lwrist -24.4509
lhand -13.9382 27.3678
lfingers 7.12502
lthumb 12.1887 56.9927
rfemur -79.7714 -10.0425 56.5233
rtibia 109.391
rfoot 49.9263 -32.8342
rtoes 21.7517
lfemur -21.4838 -1.01263 -22.8744
ltibia 27.0795
lfoot -24.2948 31.0038
ltoes 36.7728
191
root 1.42674 18.4344 10.5084 18.2933 -15.0524 346.661
lowerback 1.02336 3.44602 4.52515
upperback -10.5356 5.12512 1.58902
thorax -11.6447 2.14158 -1.3482
lowerneck -3.12024 -15.2228 -17.8925
upperneck 23.4633 -23.1294 13.4172
head 11.9311 -11.2004 4.51023
rclavicle -3.17062e-014 -9.54166e-015
rhumerus 190.455 -209.282 136.075
rradius 37.9296
rwrist -8.77461
rhand 4.75986 2.61375
rfingers 7.12502
rthumb 30.1409 -24.9479
lclavicle -3.17062e-014 -9.54166e-015
lhumerus 21.0359 8.76156 50.1148
lradius 22.6321
lwrist -20.5205
lhand -14.72 28.7841
lfingers 7.12502
lthumb 11.4347 58.4523
rfemur -80.2774 -10.6346 56.6689
rtibia 110.672
rfoot 57.0828 -8.61596
rtoes -20.9175
lfemur -21.4478 -1.97668 -22.6233
ltibia 26.8454
lfoot -25.0618 31.808
ltoes 36.6616
192
root 1.47333 18.4381 10.5482 19.4429 -19.8858 345.762
lowerback 1.1171 3.34756 4.79618
upperback -10.5146 4.99676 1.61783
thorax -11.6662 2.0442 -1.45631
lowerneck -1.78674 -15.7328 -18.632
upperneck 22.7716 -24.1367 13.9696
head 11.7861 -11.7718 4.69471
rclavicle -5.13858e-014 -2.78299e-014
rhumerus 190.431 -210.588 134.97
rradius 40.2435
rwrist -9.71402
rhand 5.2717 2.98351
rfingers 7.12502
rthumb 30.6291 -24.488
lclavicle -5.13858e-014 -2.78299e-014
lhumerus 20.4111 7.32263 48.7975
lradius 23.7025
lwrist -18.9388
lhand -14.6538 29.2804
lfingers 7.12502
lthumb 11.4986 58.945
rfemur -80.8841 -11.2294 57.0544
rtibia 111.687
rfoot 58.2692 -8.64781
rtoes -20.9563
lfemur -21.4508 -2.18966 -22.2065
ltibia 26.4269
lfoot -24.0366 32.9212
ltoes 35.8212
193
root 1.51726 18.4408 10.6308 20.6141 -24.4373 345.149
lowerback 0.62057 3.12291 4.95672
upperback -10.3078 4.62459 1.52724
thorax -11.1221 1.85357 -1.5659
lowerneck -1.41498 -16.2155 -18.5607
upperneck 22.4482 -24.9109 13.9312
head 11.722 -12.16 4.5332
rclavicle -9.64106e-015 3.26007e-014
rhumerus 190.637 -211.752 133.943
rradius 42.4182
rwrist -10.3296
rhand 5.46206 3.34067
rfingers 7.12502
rthumb 30.8106 -24.0967
lclavicle -9.64106e-015 3.26007e-014
lhumerus 19.9434 6.25626 47.5488
lradius 24.6495
lwrist -17.2768
lhand -14.9332 29.6354
lfingers 7.12502
lthumb 11.2291 59.3149
rfemur -81.6127 -12.4732 57.0503
rtibia 112.726
rfoot 58.2565 -15.7579
rtoes -10.7538
lfemur -21.5813 -2.06468 -22.2301
ltibia 26.3792
lfoot -20.7933 34.2886
ltoes 31.9943
